<?xml version="1.0" encoding="UTF-8" standalone="no"?>
<svg xmlns="http://www.w3.org/2000/svg" width="50mm" height="49.5mm" viewBox="0 0 49.999998 49.499998" version="1.1">
   <g id="logo" transform="matrix(0.04856924,0,0,0.04856924,-6.0802614,-6.3401703)" style="fill:#FFFFFF;">
      <path d="m 261.5,157.3 c -4.7,-5.3 -10.3,-9.7 -17,-13.1 -6.6,-3.5 -13.2,-5.8 -19.7,-7.1 -6.5,-1.3 -12,-2.1 -16.7,-2.5 -4.6,-0.4 -9.5,-0.6 -14.6,-0.6 h -51 c -4.5,0 -8.1,1.3 -10.8,3.9 -2.7,2.6 -4.1,6.6 -4.1,11.8 v 991.7 c 0,1.1 0.3,2.1 1,3 0.7,0.9 1.8,1.6 3.5,2.2 1.7,0.6 3.9,1 6.8,1.3 2.9,0.3 6.4,0.5 10.6,0.5 4.4,0 7.9,-0.2 10.7,-0.5 2.8,-0.3 5,-0.8 6.7,-1.3 1.7,-0.6 2.9,-1.3 3.6,-2.2 0.7,-0.9 1.1,-1.9 1.1,-3 v -866 h 18.1 c 14.3,0 26.7,-1.7 37.2,-5 10.5,-3.3 19.4,-8.2 26.7,-14.6 7.3,-6.4 12.8,-14.3 16.6,-23.7 3.8,-9.4 5.7,-20.1 5.7,-32.3 0,-8.8 -1.2,-16.8 -3.7,-23.8 -2.5,-7.2 -6.1,-13.4 -10.7,-18.7 z m -34,61.1 c -1.6,4.7 -3.8,8.8 -6.9,12.2 -3,3.4 -6.9,6.1 -11.6,7.9 -4.7,1.9 -10.6,2.8 -17.7,2.8 h -19.7 v -73.5 h 18.7 c 4.6,0 9,0.3 13.3,0.9 4.3,0.6 8.4,2.1 12.3,4.4 3.9,2.3 7.2,6 9.9,10.9 2.7,4.9 4,11.2 4,18.7 0,5.8 -0.8,10.9 -2.3,15.7 z" />
      <path d="m 436.7,1116.8 c -0.6,-1.3 -1.4,-2.7 -2,-3.5 -0.8,-1.3 -1.7,-2.2 -2.7,-2.2 H 354 L 353.8,255 h 65.4 c 1,0 1.9,-0.3 2.8,-0.8 0.9,-0.5 1.5,-1.5 2.1,-2.8 0.6,-1.3 1,-3 1.3,-5.1 0.3,-2.1 0.4,-4.8 0.4,-8 0,-3.1 -0.1,-5.8 -0.4,-7.9 -0.3,-2.2 -0.7,-3.9 -1.3,-5.2 -0.6,-1.3 -1.3,-2.2 -2.1,-2.8 -0.8,-0.6 -1.8,-0.9 -2.8,-0.9 h -65.4 v -52.9 h 77.3 c 1,0 1.9,-0.3 2.7,-0.9 0.8,-0.6 1.5,-1.6 2,-2.9 0.6,-1.3 1,-3.1 1.3,-5.3 0.3,-2.2 0.4,-4.8 0.4,-7.9 0,-3.3 -0.1,-6.1 -0.4,-8.3 -0.3,-2.2 -0.7,-4 -1.3,-5.4 -0.6,-1.4 -1.2,-2.4 -2,-2.9 -0.8,-0.5 -1.7,-0.8 -2.7,-0.8 H 323 c -3.7,0 -6.8,1.1 -9.3,3.3 -2.5,2.2 -3.8,5.7 -3.8,10.6 v 985.6 c 0,4.9 1.3,8.5 3.8,10.6 2.5,2.2 5.6,3.3 9.3,3.3 h 108.8 c 1,0 1.9,-0.3 2.8,-0.9 0.9,-0.6 1.5,-1.6 2.1,-2.9 0.6,-1.3 1,-3.1 1.3,-5.3 0.3,-2.2 0.4,-4.9 0.4,-8.1 0,-3.2 -0.1,-5.9 -0.4,-8.1 -0.3,-2.5 -0.8,-4.2 -1.3,-5.5 z" />
      <path d="m 594.5,1115 c -0.6,-1.4 -1.3,-2.4 -2.1,-3 -0.8,-0.6 -1.8,-0.9 -2.9,-0.9 H 521.4 V 140 c 0,-1.1 -0.4,-2.1 -1.1,-3 -0.7,-0.9 -1.9,-1.6 -3.6,-2.2 -1.7,-0.6 -3.9,-1 -6.7,-1.3 -2.8,-0.3 -6.4,-0.5 -10.7,-0.5 -4.2,0 -7.8,0.2 -10.6,0.5 -2.8,0.3 -5.1,0.8 -6.8,1.3 -1.7,0.6 -2.9,1.3 -3.6,2.2 -0.7,0.9 -1.1,1.9 -1.1,3 v 993.5 c 0,4.9 1.3,8.5 3.8,10.6 2.5,2.2 5.6,3.3 9.3,3.3 h 99.2 c 1.1,0 2.1,-0.3 2.9,-1 0.8,-0.7 1.5,-1.8 2.1,-3.3 0.6,-1.5 1,-3.4 1.3,-5.7 0.3,-2.3 0.4,-5.1 0.4,-8.5 0,-3.3 -0.1,-6.2 -0.4,-8.5 -0.3,-2.3 -0.7,-4 -1.3,-5.4 z" />
      <path d="m 739.4,1115 c -0.6,-1.4 -1.3,-2.4 -2.1,-3 -0.8,-0.6 -1.8,-0.9 -2.9,-0.9 H 666.3 V 140 c 0,-1.1 -0.4,-2.1 -1.1,-3 -0.7,-0.9 -1.9,-1.6 -3.6,-2.2 -1.7,-0.6 -3.9,-1 -6.7,-1.3 -2.8,-0.3 -6.4,-0.5 -10.7,-0.5 -4.2,0 -7.8,0.2 -10.6,0.5 -2.8,0.3 -5.1,0.8 -6.8,1.3 -1.7,0.5 -2.9,1.3 -3.6,2.2 -0.7,0.9 -1.1,1.9 -1.1,3 v 993.5 c 0,4.9 1.3,8.5 3.8,10.6 2.5,2.1 5.6,3.3 9.3,3.3 h 99.2 c 1.1,0 2.1,-0.3 2.9,-1 0.8,-0.7 1.5,-1.8 2.1,-3.3 0.6,-1.5 1,-3.4 1.3,-5.7 0.3,-2.3 0.4,-5.1 0.4,-8.5 0,-3.3 -0.1,-6.2 -0.4,-8.5 -0.3,-2.3 -0.7,-4 -1.3,-5.4 z" />
      <path d="M 1151,1072.6 V 209.7 c 0,-41.7 -33.8,-75.6 -75.5,-75.8 v 0 h -57.2 -21.9 -12.1 c -5.4,0 -9.8,4.4 -9.8,9.8 v 994.9 c 0,5.3 4.3,9.7 9.7,9.7 h 12.2 21.9 56.9 c 41.9,0.1 75.8,-33.8 75.8,-75.7 z m -43.9,-862.9 v 862.9 c 0,17.7 -14.2,31.9 -31.9,31.9 h -56.9 V 177.8 h 56.9 c 17.8,0 31.9,14.2 31.9,31.9 z" />
      <path d="m 854.3,134 c -52.2,0 -86.6,23 -88.6,48.5 h -0.2 v 2.2 c 0,0 0,0 0,0 v 30.3 0 21.9 37.5 861.9 c 0,6.7 5.4,12.1 12.1,12.1 h 19.9 c 6.7,0 12.1,-5.4 12.1,-12.1 v -862 h 89.1 v 862.3 c 0,6.5 5.3,11.7 11.7,11.7 h 20.7 c 6.5,0 11.7,-5.3 11.7,-11.7 V 274.3 236.8 182.4 h -0.2 C 941,155.1 906.5,134 854.3,134 Z m 44.5,102.8 h -89.1 v -21.9 l 0.3,-5.7 c 0,-20 19.8,-32.7 44.3,-32.7 24,0 43.9,11.3 44.6,31.5 v 28.8 z" />
   </g>
</svg>
